<svg xmlns="http://www.w3.org/2000/svg" width="1204.819" height="204.598" viewBox="0 0 1204.819 204.598">
  <g id="Group_97" data-name="Group 97" transform="translate(-373.014 -386.607)">
    <path id="Path_1" data-name="Path 1" d="M1243.8,528.741c-4.075,5.7-7.995,10.915-11.6,16.34a6.854,6.854,0,0,1-6.762,3.462c-5.744-.263-11.51-.175-17.262-.027-2.388.062-3.552-.532-4.417-3.019q-14.19-40.815-28.736-81.507c-.961-2.693.014-2.82,2.18-2.8,7.021.078,14.044.094,21.064-.013a3.052,3.052,0,0,1,3.471,2.413q9.238,26.318,18.659,52.571c.492,1.382,1.073,2.732,1.873,4.757,3.818-5.495,7.333-10.508,10.789-15.562.729-1.068.136-2.195-.195-3.3q-5.727-19.128-11.407-38.268c-.223-.749-.783-1.448-.266-2.563,8.375,0,16.878.029,25.38-.025,1.612-.01,1.766,1.046,2.137,2.159q6.788,20.416,13.622,40.815c1.874,5.6,3.76,11.2,5.83,17.361,4.21-5.9,8.092-11.284,11.926-16.706q14.541-20.561,29.01-41.173a5.041,5.041,0,0,1,4.778-2.5c7.671.154,15.348.06,23.707.06-4.083,5.819-7.8,11.155-11.555,16.459q-23.931,33.777-47.834,67.573c-1.616,2.3-3.231,3.4-6.149,3.286-6.206-.243-12.43-.125-18.644-.041-1.739.023-2.638-.452-3.237-2.221-1.912-5.652-4.05-11.228-6.359-17.539" transform="translate(0 0.005)" fill="#fff"/>
    <path id="Path_2" data-name="Path 2" d="M1094.345,548.468c-14.161,0-28.323-.111-42.481.085-3.263.045-3.535-1.079-2.965-3.738a130.865,130.865,0,0,0,2.428-13.55c.282-2.663,1.329-3.079,3.693-3.07,22.565.081,45.13.048,67.695.048,6.118,0,6.065-.009,7.139-6.186,1.469-8.452.96-6.97-6.076-6.99-17.614-.05-35.229-.009-52.844-.019-10.731-.006-15.337-5.045-13.824-15.557,1.225-8.518,2.735-17,4.345-25.456,1.171-6.15,9.275-12.777,15.541-12.788,28.667-.052,57.333-.012,86-.048,1.868,0,2.628.165,2.106,2.457-1.068,4.7-1.836,9.472-2.449,14.252-.376,2.924-1.51,3.916-4.587,3.868-12.546-.2-25.1-.082-37.646-.082-10.591,0-21.185.1-31.774-.064-2.954-.045-4.2,1.125-4.519,3.842-.2,1.712-.512,3.41-.78,5.114-.661,4.2-.663,4.225,3.55,4.227q26.767.015,53.535.016a40.7,40.7,0,0,1,6.888.29c6.793,1.182,10.825,7.076,9.661,13.958-1.475,8.716-3.023,17.419-4.553,26.126-1.215,6.915-8.532,13.214-15.6,13.246-14.16.063-28.321.018-42.482.019" transform="translate(0 0.005)" fill="#fff"/>
    <path id="Path_3" data-name="Path 3" d="M942.781,461.233c-6.674,5.978-12.709,11.394-18.755,16.8-9.343,8.35-18.638,16.756-28.089,24.982-1.867,1.625-1.649,2.541-.3,4.281,10,12.893,19.906,25.864,29.836,38.815.467.609.89,1.252,1.718,2.423H912.608c-5.179,0-10.359-.066-15.536.037a4.447,4.447,0,0,1-4.007-2.027c-7.446-9.643-15.026-19.183-22.5-28.807a4.8,4.8,0,0,0-4.271-2.2c-7.709.123-15.422.106-23.132.011-2-.025-2.987.295-3.354,2.618-1.434,9.064-3.24,18.067-4.71,27.126-.4,2.489-1.231,3.407-3.889,3.313-6.323-.223-12.659-.12-18.988-.043-1.9.023-2.465-.194-2.057-2.458q7.426-41.166,14.5-82.395c.366-2.132,1.109-2.552,3.047-2.521q9.837.157,19.679.005c1.951-.026,2.46.261,2.032,2.457-1.84,9.459-3.385,18.976-5.076,28.465-.344,1.927-.378,3.056,2.3,2.98,7.475-.212,14.961-.14,22.44-.025a5.9,5.9,0,0,0,4.263-1.719q17.379-15.228,34.815-30.39c.843-.734,1.538-1.731,2.856-1.731,10.3.009,20.6.005,31.751.005" transform="translate(0 0.005)" fill="#2b1547"/>
    <path id="Path_4" data-name="Path 4" d="M605.3,495.019c8.819,0,17.443-.034,26.067.03,1.607.012,2.512-.96,3.534-1.852q17.151-14.973,34.266-29.986a7.191,7.191,0,0,1,5.216-2.036c9.64.117,19.282.051,29.785.051-5.139,4.607-9.7,8.7-14.27,12.792-10.8,9.663-21.555,19.368-32.432,28.938-1.765,1.553-1.887,2.451-.424,4.331,9.815,12.612,19.5,25.325,29.2,38.03.659.863,1.738,1.524,1.748,3.214-6.679,0-13.408-.726-19.912.174-9.189,1.273-14.875-2.312-19.751-9.762-4.894-7.478-10.981-14.17-16.431-21.294a4.774,4.774,0,0,0-4.325-2.1c-7.6.1-15.2.208-22.794-.049-2.664-.091-3.322,1.016-3.7,3.18-1.582,9.163-3.31,18.3-4.789,27.481-.315,1.959-1.045,2.428-2.856,2.407-6.677-.08-13.357-.109-20.033.014-2.091.038-2.2-.779-1.9-2.462q3.986-22.027,7.872-44.072c2.193-12.435,4.423-24.865,6.425-37.332.425-2.64,1.171-3.662,4.008-3.557,6.324.232,12.665.159,18.995.023,2.095-.045,2.343.488,1.978,2.464-1.91,10.357-3.643,20.747-5.482,31.378" transform="translate(0 0.005)" fill="#2b1547"/>
    <path id="Path_5" data-name="Path 5" d="M1537.347,470.119q.013,2.451.026,4.9c-1.626,9.037-3.013,18.125-4.94,27.1-2.314,10.771-8.826,15.82-19.812,15.848-18.764.047-37.528.07-56.291-.05-2.777-.018-3.7.868-4.114,3.565-1.212,7.94-2.791,15.824-4.143,23.744-.4,2.37-1.313,3.432-4.006,3.32-5.976-.248-11.971-.157-17.954-.039-2.5.049-3.674-.118-3.071-3.327,2.815-15,5.375-30.051,7.887-45.107.421-2.526,1.923-2.337,3.694-2.335,23.023.018,46.046-.051,69.068.079,3.506.019,5.413-.822,5.619-4.613a49.789,49.789,0,0,1,1.3-7.1c.838-4.121.647-4.4-3.476-4.4-22.908-.008-45.816-.068-68.723.07-3.255.02-4.169-.745-3.448-3.978,1.047-4.7,1.777-9.476,2.5-14.242.279-1.851,1.07-2.368,2.914-2.364,28.663.057,57.327.019,85.99.057,5.963.008,9.034,3.8,10.982,8.878" transform="translate(0 0.005)" fill="#fff"/>
    <path id="Path_6" data-name="Path 6" d="M799.924,462.158a27.968,27.968,0,0,0-7.154-.954c-20.71.037-41.421-.009-62.132.059a31.657,31.657,0,0,0-7.854.87c-7.076,1.852-12.962,5.67-14.408,13.237-3.618,18.928-6.544,37.987-10.107,56.926-1.974,10.489,5.644,15.829,12.9,15.96,11.614.208,23.234.055,34.852.055,11.733,0,23.477.328,35.194-.1,9.965-.363,17.487-7.363,19.219-17.093q4.762-26.77,9.282-53.586c1.285-7.548-2.483-13.452-9.8-15.374m-16.106,22.107q-3.8,20.49-7.276,41.037c-.375,2.2-1.086,3.055-3.463,3.006-7.712-.161-15.43-.06-23.146-.06-7.831,0-15.663-.091-23.491.056-2.263.043-2.724-.622-2.341-2.712q3.813-20.836,7.449-41.7c.306-1.777.982-2.254,2.663-2.25q23.838.068,47.676-.01c2.211-.01,2.292.68,1.929,2.637" transform="translate(0 0.005)" fill="#2b1547"/>
    <path id="Path_7" data-name="Path 7" d="M1048.59,472.441c-1.143-6.6-7.373-11.113-15.831-11.167-21.762-.139-43.528-.216-65.288.022-11.3.124-19.178,6.184-20.857,15.473q-4.961,27.457-9.618,54.969c-1.683,10,3.1,16.15,13.329,16.522,11.382.415,22.79.095,34.187.095,0-.021,0-.042,0-.063,11.856,0,23.725.346,35.564-.106,10.018-.383,17.419-7.848,19.08-17.675,2.565-15.17,5.4-30.293,7.923-45.471.691-4.164,2.249-8.324,1.51-12.6m-26.153,11.885c-2.538,13.776-5.038,27.56-7.383,41.37-.353,2.08-1.079,2.617-3.063,2.592-7.83-.1-15.661-.04-23.492-.04-7.945,0-15.891-.035-23.837.027-1.706.013-2.442-.164-2.057-2.25q3.815-20.66,7.347-41.372c.37-2.154,1.063-3.067,3.475-3.049q23.317.178,46.637.012c2.2-.012,2.774.533,2.373,2.71" transform="translate(0 0.005)" fill="#2b1547"/>
    <path id="Path_8" data-name="Path 8" d="M1406.821,529.06c-7.622-21.534-15.276-43.057-22.813-64.62-.848-2.428-1.97-3.386-4.641-3.287-6.092.224-12.2.181-18.3.013a5.015,5.015,0,0,0-4.762,2.54q-24.71,35.132-49.559,70.161c-3.294,4.659-6.572,9.329-10.286,14.6,5.393,0,10.135-.529,14.712.114,8.728,1.224,15.1-1.4,18.892-9.55.955-2.051,2.643-2.457,4.822-2.44,12.431.1,24.865,0,37.3.076,3.422.02,7.424-1.272,10.114.563,2.557,1.744,2.649,5.915,4.09,8.9a2.917,2.917,0,0,1,.235.647,1.968,1.968,0,0,0,2.216,1.692c8.152-.022,16.3-.012,24.867-.012-2.373-6.686-4.634-13.042-6.885-19.4M1345.6,516.275l20.207-28.209c3.516,9.591,6.88,18.769,10.34,28.209Z" transform="translate(0 0.005)" fill="#fff"/>
    <path id="Path_9" data-name="Path 9" d="M407.212,386.6c3.634,6.12,9.233,9.072,15.442,11.169a134.933,134.933,0,0,0,19.363,4.543c7.361,1.329,14.778,2.391,22.081,3.98a59.284,59.284,0,0,1,28.085,14.749A54,54,0,0,1,502.1,433.12c.112.189.251.362.425.61a20.788,20.788,0,0,1,1.877-4.062,10.764,10.764,0,0,1,6.379-4.4c.587-.171,1.184-.311,1.783-.433.548-.112.785.18.53.646-2.509,4.579-1.737,9.3-.638,14.035.385,1.659.85,3.3,1.274,4.949a2.912,2.912,0,0,0,.684,1.253,25.867,25.867,0,0,1,4.042,5.884,22,22,0,0,0,2.213,3.166A62.333,62.333,0,0,1,529.422,472a1.308,1.308,0,0,0,.925.961c6.153,2.015,10.387,6.192,13.19,11.906,2.625,5.352,3.477,11.1,3.548,16.992a67.68,67.68,0,0,1-1.822,17.572c-1.24,4.878-3.155,9.409-7.023,12.871a18.337,18.337,0,0,1-10.622,4.412c-1.845.2-1.844.15-1.688,1.979a89.774,89.774,0,0,1-.9,22c-.386,2.386-.735,4.779-1.142,7.436l-7.9-9.9a71.834,71.834,0,0,1-4.85,24.514l-6.065-9.891A76.31,76.31,0,0,1,495.6,580.3a59.363,59.363,0,0,1-25.609,9.971,76.691,76.691,0,0,1-16.8.74c-17.839-1.453-33.255-8.114-45.528-21.393a46.55,46.55,0,0,1-10.429-18.341,85.877,85.877,0,0,1-2.63-13.066,64.651,64.651,0,0,1-.818-11.768c.025-.566.609-1.257.037-1.665-.417-.3-1.119-.2-1.694-.277-4.545-.644-8.81-1.976-12.3-5.138a13.7,13.7,0,0,1-4.141-7.069c-.8-3.282-1.752-6.526-2.279-9.876a37.364,37.364,0,0,1,1.887-18,63.948,63.948,0,0,1,4.785-10.96,3.091,3.091,0,0,1,.659-.95c1.53-1.2,1.532-2.906,1.621-4.6a115.415,115.415,0,0,1,2.53-18.675c.344-1.566.76-3.117,1.17-4.783-.775.432-1.459.823-2.153,1.194-.162.087-.324.394-.518.169a.78.78,0,0,1-.069-.715,23.422,23.422,0,0,1,1.653-4.325,33.542,33.542,0,0,1,5.7-8.131,1.545,1.545,0,0,0,.4-1.706,33.045,33.045,0,0,1-.352-15.9,46.937,46.937,0,0,1,5.456-14.218,28.468,28.468,0,0,0,7.365,11.258c-1.158-8.944.854-17.139,3.661-25.471" transform="translate(0 0.005)" fill="#2b1547"/>
    <path id="Path_10" data-name="Path 10" d="M435.522,504.133a13.544,13.544,0,0,1,7.442-.161,15.032,15.032,0,0,1,5.156,2.581,1.188,1.188,0,0,0,1.238.22A42.015,42.015,0,0,1,458.9,504.8a14.8,14.8,0,0,1,4.987.455c3.959.991,4.784,5.75,3.321,8.4a9.654,9.654,0,0,1-4.682,3.906,9.681,9.681,0,0,0,5.208-.741,12.732,12.732,0,0,0,6.6-5.983c.315-.6.649-1.189.968-1.787,1.425-2.676,2.933-3.377,5.893-2.613a17.311,17.311,0,0,1,9.307,6.108,40.086,40.086,0,0,1,7.712,14.4,29.456,29.456,0,0,1,.98,6.261,34.058,34.058,0,0,0,1.135-10.158c.349.057.406.375.539.592,3.829,6.232,6.236,12.9,5.82,20.32a33.806,33.806,0,0,1-4.52,14.568c-4.822,8.682-12.081,14.568-21.257,18.177a59.967,59.967,0,0,1-24.247,4.151c-13.4-.466-25.789-4.207-36.747-12.11a36.086,36.086,0,0,1-12.363-14.73,26.647,26.647,0,0,1-1.638-15.542c1.156-6.912,4.64-12.647,8.883-18.018,1.441-1.825,3.015-3.536,4.627-5.213.107-.112.77-.248.189-.634-2.605.008-5.189-.33-7.783-.473a9.286,9.286,0,0,1-7.326-4.284,17.771,17.771,0,0,1-2.927-6.679,23.862,23.862,0,0,1,.26-8.547,29.6,29.6,0,0,1,2.4-7.222c.24,1.328.41,2.472.659,3.6a20.461,20.461,0,0,0,4.279,9.279,10.219,10.219,0,0,0,6.37,3.685c.271-.148.515-.019.763.072a24.551,24.551,0,0,0,8.566,1.78,3.471,3.471,0,0,1,1.242.126c.367.247.288.61.243.961A7.653,7.653,0,0,0,429.8,514.5a13.993,13.993,0,0,0,5.369,2.323,1.54,1.54,0,0,0-.575-.736,16.287,16.287,0,0,1-2.624-3.458c-1.969-3.427-1.082-6.356,2.471-8.222.353-.121.662-.418,1.082-.275" transform="translate(0 0.005)" fill="#f6c788"/>
    <path id="Path_11" data-name="Path 11" d="M413.121,411.645c4.537,13.4,14.087,22.286,26.074,28.954-2.3.59-12.9-1.6-19.251-4.2a44.934,44.934,0,0,1-16.511-11.437l2.459,11.572c-4.567-3.338-10.65-13.225-9.221-25.708a25.475,25.475,0,0,0,5.376,7.343,36.812,36.812,0,0,0,7.478,5.711c-3.633-8.945-3.308-17.852-.908-27a44.6,44.6,0,0,1,2.844,3.722c2.1,2.691,4.223,5.348,6.557,7.847a66.555,66.555,0,0,0,15.526,11.82c4.463,2.6,9.1,4.853,13.723,7.156a2.217,2.217,0,0,1,1.008.685c-2.128.008-4.082.539-6.154.31a42.307,42.307,0,0,1-6.18-.946,39.144,39.144,0,0,1-13.373-6.747,50.647,50.647,0,0,1-5.45-4.757,55.534,55.534,0,0,1-4-4.318" transform="translate(0 0.005)" fill="#4d2d7f"/>
    <path id="Path_12" data-name="Path 12" d="M405.093,482.03c-1.06-.3-1.333-1.1-1.428-2.091-.108-1.12-.322-2.23-.507-3.342a1.032,1.032,0,0,1,.921-1.325,17.457,17.457,0,0,1,2.19-.364c3.54-.249,7.079-.587,10.629-.586a80.324,80.324,0,0,1,16.69,1.945c4.09.867,8.15,1.874,12.223,2.819a12.353,12.353,0,0,0,4.029.026c3.524-.772,7.04-1.576,10.572-2.31a79.87,79.87,0,0,1,20.58-1.9,90.3,90.3,0,0,1,9.641.883c1.766.286,1.809.358,1.705,2.088-.01.161,0,.322,0,.483a9.308,9.308,0,0,1-.541,3.594,1.172,1.172,0,0,1-.923.785,2.255,2.255,0,0,0-1.611,2.055,63.71,63.71,0,0,1-3.244,11.929,10.391,10.391,0,0,1-6.373,5.945,23.293,23.293,0,0,1-10.57,1.222,27.449,27.449,0,0,1-6.505-1.4,10.5,10.5,0,0,1-5.6-4.237,1.557,1.557,0,0,1-.322-.692,71.042,71.042,0,0,1-5.619-10.473,1.426,1.426,0,0,1-.581-.865,3.027,3.027,0,0,0-5.516.017,72.247,72.247,0,0,1-4.385,8.631,34.589,34.589,0,0,1-2.922,4.1,11.2,11.2,0,0,1-5.882,3.552,26.08,26.08,0,0,1-14.154.319,14.312,14.312,0,0,1-5.679-2.826c-.287-.244-.64-.457-.693-.892a17.872,17.872,0,0,1-2.113-4.036c-.268-.286-.3-.686-.489-1.011-.7-2.954-1.495-5.885-1.99-8.883-.035-.217-.107-.429-.161-.642a.488.488,0,0,1-.25-.387,3.129,3.129,0,0,0-1.127-2.129" transform="translate(0 0.005)" fill="#efa51e"/>
    <path id="Path_13" data-name="Path 13" d="M480.478,468.444c1.3-.3,2.631-.155,3.94-.332.924-.124,1.861-.142,2.878-.214a3.047,3.047,0,0,1-1.847,1.861,15.536,15.536,0,0,1-6.616,1.18c-4.07.05-8.127-.414-12.2-.306a30.9,30.9,0,0,0-17.116,5.315c-.436.3-.7.359-1.136-.045a26.68,26.68,0,0,0-12.9-6.25c-7.422-1.57-14.757-.849-22.043.927-.621.151-1.242.3-2.072.493a16.229,16.229,0,0,1,4.158-4.13,33.833,33.833,0,0,1,11.035-5.018c7.583-2.071,15.342-2.395,23.146-2.164.543.016,1.085.105,1.659.162-1.824,3.227-3.958,6.295-3.712,10.374,5.457-3.548,11.218-4.136,17.268-2.984a56.025,56.025,0,0,0,8.358.964,10.185,10.185,0,0,1,1.038.142c.332.3.736.146,1.1.136a37.364,37.364,0,0,0,5.063-.111" transform="translate(0 0.005)" fill="#f6c788"/>
    <path id="Path_14" data-name="Path 14" d="M525.668,510.148a48.031,48.031,0,0,1-.751,10.493c-.467,2.042-1.28,3.871-3.472,4.646a4,4,0,0,1-3.258-2.115c-.369-.544,0-.909.4-1.224.474-.381,1.074-.559,1.705-.976a29.408,29.408,0,0,1-3.443-1.728q-1.815-.81-.164-1.934a13.314,13.314,0,0,1,3.413-1.5,6.308,6.308,0,0,1-3.086-1.893c-.812-.909-.664-1.619.453-2.105a8.956,8.956,0,0,1,1.575-.473,4.485,4.485,0,0,1,1.416-.2,5.216,5.216,0,0,1-1.451-.755,7.173,7.173,0,0,0-2.116-1.149.914.914,0,0,1-.77-.778.983.983,0,0,1,.618-.914,12.265,12.265,0,0,1,3.325-1.244,9.2,9.2,0,0,1-2.277-.889,2.342,2.342,0,0,1-.285-3.738,4.755,4.755,0,0,1,.627-.455,8.131,8.131,0,0,1,1.643-.8,7.658,7.658,0,0,1-2.371-1.105c-.944-.628-1.032-1.316-.242-2.153a8.467,8.467,0,0,1,2.639-1.772c.194-.091.437-.127.571-.415a14.112,14.112,0,0,0-2.634-.87c-.447-.105-.933-.223-1.022-.752-.08-.483.33-.739.663-.99a8.193,8.193,0,0,1,1.7-.951,5.715,5.715,0,0,1-2.509-.491c-.868-.427-.991-1.1-.3-1.776a5.677,5.677,0,0,1,2.217-1.47,3.95,3.95,0,0,1-1.707-.069c-.972-.31-1.187-.924-.637-1.778.261-.406.651-.711.931-1.162-.869-.1-1.716.056-2.537-.081-.648-.108-1.467-.053-1.629-1,1.067-2.622,4.8-3.748,7.51-2.277a8.458,8.458,0,0,1,3.957,5.368,35.543,35.543,0,0,1,1.11,8.11c.122,1.83.135,3.667.2,5.5-.111,3.29-.1,6.58,0,9.869" transform="translate(0 0.005)" fill="#efa51e"/>
    <path id="Path_15" data-name="Path 15" d="M506.759,521.277a70.538,70.538,0,0,0-6.017-10.108,27.953,27.953,0,0,0-4.352-4.915c-2.028-1.726-4.174-3.086-7.254-1.992,1.4-2.8,2.658-5.389,3.984-7.943a28.323,28.323,0,0,1,3.517-5.429,7.156,7.156,0,0,1,1.717-1.548,2.331,2.331,0,0,1,3.387.641c3.557,4.206,5.07,9.173,5.564,14.548a75.114,75.114,0,0,1-.546,16.746" transform="translate(0 0.005)" fill="#f6c788"/>
    <path id="Path_16" data-name="Path 16" d="M527.984,517.323c.358-5.119.615-10.246.56-15.375a59.781,59.781,0,0,0-1.279-13.935,14.431,14.431,0,0,0-1.017-2.913c-.168-.342-.265-.568.288-.621,1.183-.113,1.179-.138.784-1.254a2.784,2.784,0,0,1-.079-.376,43.4,43.4,0,0,0-5.348-12.561,35.351,35.351,0,0,0-7.443-8.055,11.051,11.051,0,0,0-2.966-1.382c-.41-.165-.89-.229-1.092-.717-.018-.692-.459-1.466.389-1.986A52.608,52.608,0,0,1,529.675,478.3a39.319,39.319,0,0,1,3.176,7.973c.231.846,1.1,1.06,1.429,1.764a41.028,41.028,0,0,1,1.791,13.079,31.133,31.133,0,0,1-.672,5.469c-.067.321-.077.844-.517.8-.368-.037-.437-.539-.454-.877-.079-1.515-.337-3.014-.389-4.119a24.825,24.825,0,0,1-1.422,10.462,7.74,7.74,0,0,1-3.031,4.147c-.468.3-.974.687-1.6.328" transform="translate(0 0.005)" fill="#efa51e"/>
    <path id="Path_17" data-name="Path 17" d="M422.4,449.687c1.948.533,3.83,1.045,5.743,1.425a52.32,52.32,0,0,0,13.561.822c4.139-.261,8.257-.862,12.419-.718a43.772,43.772,0,0,1,5.654.532,10.614,10.614,0,0,0,1.428.008A38.519,38.519,0,0,0,453.309,449c.669-.3,1.217.107,1.793.1a9.837,9.837,0,0,1,1.72.188,62.58,62.58,0,0,1,11.062,2.6,28.2,28.2,0,0,1,8.566,4.385,11.992,11.992,0,0,1,2.922,3.086,99.594,99.594,0,0,0-13.2-3.027c-2.693-.4-5.419-.631-8.137-.888-6.126-.58-12.26-.114-18.38-.386-4.52-.2-9.053-.573-13.334-2.282a11.172,11.172,0,0,1-3.023-1.7,1.874,1.874,0,0,1-.9-1.383" transform="translate(0 0.005)" fill="#4d2d7f"/>
    <path id="Path_18" data-name="Path 18" d="M389.524,515.99c-1.586-.474-2.11-1.8-2.47-3.194a19.8,19.8,0,0,1-.571-4.117,156.363,156.363,0,0,1-.007-16.072,14.78,14.78,0,0,1,1.057-5.188c1-2.233,2.757-3.356,4.951-3.046a3.257,3.257,0,0,1,2.708,1.914c.087.438-.246.567-.541.657a3.926,3.926,0,0,1-2.234.23c.342.524,1.009.937.683,1.635-.259.557-.865.583-1.4.623.62.379,1.607.6,1.438,1.536-.181,1.009-1.2.878-1.982,1.009,0,.021.05.034.115.075.508.318,1.292.524,1.242,1.212-.055.736-.923.659-1.449.914-.254.122-.568.111-.846.413a8.99,8.99,0,0,1,1.868,1.185c.93.841.9,1.259-.114,1.945a2.754,2.754,0,0,1-1.5.575c.009,0,.012.036.03.042,1.069.393,2.216.713,2.2,2.189-.012,1.012-.639,1.573-2.271,1.995a6.254,6.254,0,0,1,2.238.8c.661.439.672.981-.043,1.315-.768.358-1.4.925-2.335,1.33a5.342,5.342,0,0,1,1.882.407c.919.451,1.025,1,.331,1.735a5.091,5.091,0,0,1-.669.557,4.2,4.2,0,0,1-1.162.635,22.319,22.319,0,0,1,2.065.855c.855.491.863,1.082.016,1.58a10.565,10.565,0,0,1-2.072,1.145c-.03.139,0,.185.062.231.462.349,1.332.427,1.2,1.2-.133.76-.832,1.2-1.489,1.558a1,1,0,0,1-.922.12" transform="translate(0 0.005)" fill="#efa51e"/>
    <path id="Path_19" data-name="Path 19" d="M380.011,489.782c1.115-.815,1.236-2.132,1.64-3.3a42.707,42.707,0,0,1,9.99-15.618,53.275,53.275,0,0,1,4.709-4.314c.54.085.426.537.456.873a4.505,4.505,0,0,1-.059,1.4c-.144.511-.575.757-.975,1.022a24.1,24.1,0,0,0-7.853,8.5,37.532,37.532,0,0,0-2.828,7.36c-.126.423-.252.845-.395,1.322l1.061.125c-2.094,6.588-1.5,13.317-1.124,20.033.046.837.068,1.675.1,2.513.009.782-.188.954-.846.682a3.919,3.919,0,0,1-1.817-1.813,14.321,14.321,0,0,1-1.7-6.005,10.174,10.174,0,0,1-.007-2.672c0-.219-.22-.06-.1-.1.012,0,.025.014.023.055-.076,1.181.268,2.424-.589,3.507-1.47-4.555-.938-9.073.306-13.578" transform="translate(0 0.005)" fill="#efa51e"/>
    <path id="Path_20" data-name="Path 20" d="M512.9,483.576a2.212,2.212,0,0,0,1.881.784c.929.031,1.861.008,2.963.008-.484.527-.865.935-1.238,1.35-.284.316-.606.677-.44,1.11a1.2,1.2,0,0,0,1.121.625c.57.051,1.147.012,1.9.012-.862.556-1.6.984-2.281,1.49-.368.273-.879.564-.76,1.14.126.605.728.71,1.2.828a11.819,11.819,0,0,0,2.473.356c-.685.393-1.375.779-2.055,1.182-.355.21-.858.428-.769.882s.624.443,1.035.542a16.974,16.974,0,0,1,3.206,1.1,18.1,18.1,0,0,0-3.215,1.816,5.988,5.988,0,0,0-.885.88.808.808,0,0,0,.279,1.3,8.3,8.3,0,0,0,3.111,1.331c-.812.419-1.5.78-2.2,1.132a2.219,2.219,0,0,0-1.244,2.486c.136,1.107,1.072,1.372,1.865,1.744a11.922,11.922,0,0,0,1.791.518c-1.008.642-2.155.65-3.065,1.219-.16.1-.37.119-.537.211-.339.186-.755.4-.742.811.015.458.488.548.859.647,1.43.381,2.354,1.629,3.736,2.132a20.193,20.193,0,0,0-3.168.745c-1.175.337-1.3.972-.478,1.868a6.7,6.7,0,0,0,3.75,1.951,17.663,17.663,0,0,0-4.189,1.746c-.32.208-.755.41-.7.836s.5.552.864.692c1.314.508,2.376,1.511,4.031,1.877-.851.436-1.487.729-2.089,1.08-.57.334-.9.611-.3,1.392a7.016,7.016,0,0,0,2.842,1.891,5.336,5.336,0,0,1-6.99-4.62c-.2-2.431.359-4.819.39-7.237.021-1.677.1-3.353.154-5.03a25.809,25.809,0,0,1-.005-3.658c-.136-6.468-.417-12.918-2.184-19.2a2.459,2.459,0,0,1,.085-1.964" transform="translate(0 0.005)" fill="#d89228"/>
    <path id="Path_21" data-name="Path 21" d="M456.655,497.557c2.838,4.32,7.28,5.448,12,6.009a25.661,25.661,0,0,0,8.835-.5,11.512,11.512,0,0,0,9.1-8.48,92.579,92.579,0,0,0,2.463-10.125c.178-.982.53-1.7,1.593-1.916a1.375,1.375,0,0,0,1.12-1.358c.131-.953.379-1.889.576-2.833.325.139.653.274.976.418a.822.822,0,0,1,.537,1c-.257,1.385-.509,2.771-.728,4.163a1.226,1.226,0,0,1-.924,1.185c-1.238.316-1.606,1.21-1.828,2.4a64.946,64.946,0,0,1-2.5,9.886,16.53,16.53,0,0,1-1.92,4.084,10.584,10.584,0,0,1-5.214,3.636,20.166,20.166,0,0,1-8.422,1.307c-3.89-.24-7.741-.781-11.149-2.941a13.619,13.619,0,0,1-3.322-3.587,17.652,17.652,0,0,1-1.073-1.605c-.128-.213-.449-.446-.12-.752" transform="translate(0 0.005)" fill="#171020"/>
    <path id="Path_22" data-name="Path 22" d="M411.224,499.117c2.965,2.8,6.641,3.87,10.566,4.186a26.374,26.374,0,0,0,11.763-1.691c2.616-1.013,4.247-3.063,5.742-5.272a64.5,64.5,0,0,0,5.586-10.579,2.614,2.614,0,0,1,2.8-1.617c1.213.074,2.4.307,2.89,1.679.15.422.31.84.465,1.26-.273.26-.792-.1-.977.386-.023-.022-.059-.04-.067-.067-.465-1.473-.8-1.842-2.258-.708-1.857,1.443-2.25,3.738-3.258,5.667-1.847,3.532-3.667,7.064-6.458,9.985-.728.762-1.734,1.1-2.495,1.787a2.044,2.044,0,0,1-.948.41,19.435,19.435,0,0,1-7.205,1.7,1.656,1.656,0,0,1-.948-.057,1.15,1.15,0,0,0-.795-.294,52.641,52.641,0,0,1-9.5-1.728l-.579-.2a9.623,9.623,0,0,1-4.089-4.01c-.127-.265-.474-.473-.233-.841" transform="translate(0 0.005)" fill="#2b1547"/>
    <path id="Path_23" data-name="Path 23" d="M527.984,517.323c2.432-.495,3.517-2.371,4.3-4.411a25.47,25.47,0,0,0,1.565-9.344c0-.644,0-1.287.059-1.937.759,1.79.576,3.743.955,5.881a24.546,24.546,0,0,0,.9-5.775,39.058,39.058,0,0,0-1.6-13.029c-.077-.258-.192-.493.113-.674a11.529,11.529,0,0,1,3.063,6.321c.164.815.244,1.647.362,2.471.178.189.115.425.116.643q0,7.38,0,14.759c0,.216.071.455-.128.635a9.922,9.922,0,0,1-4.175,6.039,11.885,11.885,0,0,1-5.272,1.706c-.3.033-.6.038-.555-.423.1-.953.2-1.908.294-2.862" transform="translate(0 0.005)" fill="#d89228"/>
    <path id="Path_24" data-name="Path 24" d="M389.524,515.99a3.965,3.965,0,0,0,2.062-1.357c.416-.425.2-.686-.177-.907-.439-.254-.9-.471-1.506-.785a14.626,14.626,0,0,0,2.78-1.44c.215-.118.542-.168.521-.5-.023-.364-.315-.555-.618-.679-.828-.337-1.665-.653-2.668-1.043a5.169,5.169,0,0,0,2.46-1.374c.611-.574.52-.908-.224-1.3-.7-.37-1.525-.229-2.391-.656,1.094-.326,1.72-1.23,2.75-1.473a.6.6,0,0,0,.457-.461c.056-.33-.261-.39-.467-.533-.725-.5-1.656-.495-2.437-.95.907-.565,2.3-.468,2.4-1.93.117-1.786-1.6-1.637-2.617-2.424a3.844,3.844,0,0,0,2.4-.917c.4-.272.452-.539.085-.935a9.764,9.764,0,0,0-2.758-1.791,11.553,11.553,0,0,1,2.285-.88c.2-.079.477-.107.521-.368s-.191-.395-.375-.513c-.485-.309-.982-.6-1.677-1.017a7.992,7.992,0,0,0,1.925-.2c.37-.111.688-.243.761-.635s-.251-.594-.505-.764c-.447-.3-.938-.533-1.432-.806.075-.066.112-.129.152-.13.635-.032,1.513.108,1.714-.553.217-.714-.583-1.173-1.266-1.738,1.331.019,2.565.312,3.521-.647a1.658,1.658,0,0,1,.106,1.492,47.6,47.6,0,0,0-1.315,11.309,89.983,89.983,0,0,0,.564,12.649c.326,2.959-2.472,5.311-5.023,4.253" transform="translate(0 0.005)" fill="#d89228"/>
    <path id="Path_25" data-name="Path 25" d="M492.667,447.323a4.461,4.461,0,0,1-1.42-.521A73.654,73.654,0,0,0,472,439.747a26.218,26.218,0,0,1-5.962-1.891,5.083,5.083,0,0,0-2.254-.421,16.685,16.685,0,0,1-7.735-2.4,26.332,26.332,0,0,0,3.126.847,31.737,31.737,0,0,0,3.329.544,31.075,31.075,0,0,1-7.623-5.887c2.416,1.316,4.812,2.674,7.255,3.94,4.376,2.268,8.833,4.305,13.816,4.913a25.437,25.437,0,0,1,7.148,2.252c.879.388,1.754.789,2.672,1.12a52.441,52.441,0,0,0-5.648-3.918c4.842,1.844,9.72,3.636,12.541,8.475" transform="translate(0 0.005)" fill="#4d2d7f"/>
    <path id="Path_26" data-name="Path 26" d="M380.011,489.782c.407.317.061.677-.007.962a31.775,31.775,0,0,0-.925,7.707,19.821,19.821,0,0,0,.754,4.736l.471-3.661c.3,1.807.3,3.644.714,5.433a10.687,10.687,0,0,0,1.9,4.373,4.062,4.062,0,0,0,1.041.83c.531.35.756.107.775-.454.118.859.233,1.717.353,2.576.058.414-.077.6-.531.539-2.87-.377-5.155-1.575-6.314-4.407a4.532,4.532,0,0,1-.341-1.69c-.042-3.129-.1-6.257-.158-9.386a11.164,11.164,0,0,1,1.865-7.157,3.815,3.815,0,0,1,.4-.4" transform="translate(0 0.005)" fill="#d89228"/>
    <path id="Path_27" data-name="Path 27" d="M510.608,460.318a14.238,14.238,0,0,1,6.584,3.957A35.584,35.584,0,0,1,527.138,482a7.312,7.312,0,0,1,.1.853,50.162,50.162,0,0,0-5.58-9.786,47.406,47.406,0,0,0-10.655-10.433,2.024,2.024,0,0,1-.4-2.312" transform="translate(0 0.005)" fill="#d89228"/>
    <path id="Path_28" data-name="Path 28" d="M448.191,503.99a3.167,3.167,0,0,1-2.791.171c-.78-.3-1.573-.575-2.334-.92-.64-.29-.968-.8-.565-1.486,2.574-4.391,3.893-9.23,5.083-14.117.046-.187.116-.368.175-.553a1.293,1.293,0,0,1,1.3-.586c.772,0,.959.335.831,1.387q-.023,1.634-.046,3.267a1.408,1.408,0,0,0-1.706,1.035,22.844,22.844,0,0,0-.975,9.355,4.1,4.1,0,0,0,1.025,2.447" transform="translate(0 0.005)" fill="#f6c788"/>
    <path id="Path_29" data-name="Path 29" d="M448.191,503.99c-.647-.1-.879-.581-1.028-1.138a17.058,17.058,0,0,1-.127-6.975,18.628,18.628,0,0,1,.707-3.378,5.353,5.353,0,0,1,.4-.975c.5-.848.864-.918,1.7-.371q.125,2.484.25,4.969a3.774,3.774,0,0,1-.21,1.9,11.477,11.477,0,0,0-.271,4.511c.071.385.119.785-.323,1.017a2.774,2.774,0,0,1-1.1.439" transform="translate(0 0.005)" fill="#f6c788"/>
    <path id="Path_30" data-name="Path 30" d="M401.581,503.175c.739,1.284,1.027,2.751,1.7,4.073,1.329,2.62,2.972,4.9,5.8,6.062a15.674,15.674,0,0,0,4.544.713c1.916.191,3.841.289,5.761.435.083.007.159.1.238.153-3.033.333-6.051.982-9.115.8a7.794,7.794,0,0,1-6.915-4.833,19.788,19.788,0,0,1-2.006-7.4" transform="translate(0 0.005)" fill="#dbb68d"/>
    <path id="Path_31" data-name="Path 31" d="M385.091,485.715a14.038,14.038,0,0,1,1.176-4.336,24.011,24.011,0,0,1,5.781-8.877,27.611,27.611,0,0,1,4.485-3.453c.617.836.093,1.57-.207,2.324a37.491,37.491,0,0,0-8.516,9.161c-1.047,1.658-1.846,3.437-2.719,5.181" transform="translate(0 0.005)" fill="#d89228"/>
    <path id="Path_32" data-name="Path 32" d="M505.159,486.7c-.592.432-1.2.042-1.774-.019q-3.884-.41-7.751-.952a1.583,1.583,0,0,1-1.341-2.053,1.414,1.414,0,0,1,1.762-1.223,31.523,31.523,0,0,1,4.1.531c-.421.236-.129.341.081.479,1.641,1.079,3.256,2.2,4.924,3.237" transform="translate(0 0.005)" fill="#e29825"/>
    <path id="Path_33" data-name="Path 33" d="M505.159,486.7a1.39,1.39,0,0,1-.828-.222c-1.627-1.084-3.25-2.172-4.921-3.291.246-.261.525-.125.744-.2,1.536.143,3.075.261,4.607.438a1.361,1.361,0,0,1,1.365,1.262c.061.828.143,1.724-.967,2.016" transform="translate(0 0.005)" fill="#efa51e"/>
    <path id="Path_34" data-name="Path 34" d="M449.292,503.552a1,1,0,0,0,.123-.726,10.491,10.491,0,0,1,.5-5.772,7.183,7.183,0,0,0,.181-.931c.262,2,.563,3.994.773,6,.114,1.093-.786,1.243-1.578,1.43" transform="translate(0 0.005)" fill="#f6c788"/>
    <path id="Path_35" data-name="Path 35" d="M510.608,460.318a7.648,7.648,0,0,0,.4,2.313c-.578-.176-.742-.71-.911-1.172-.59-1.612-1.265-3.229-.635-5.066.282.347.027.725.209,1.02a12.945,12.945,0,0,1,1.616-2.748,11.449,11.449,0,0,0-.5,3.483,4.419,4.419,0,0,0-.173,2.17" transform="translate(0 0.005)" fill="#4d2d7f"/>
    <path id="Path_36" data-name="Path 36" d="M396.326,471.372a11.32,11.32,0,0,0,.207-2.324,5.458,5.458,0,0,0-.183-2.494c.2-1.171-.352-2.23-.492-3.366.472,1.127,1.415,1.975,1.778,3.458.051-.546.074-.794.1-1.016.109-.088.144-.069.149.031a8.119,8.119,0,0,1-1.554,5.711" transform="translate(0 0.005)" fill="#352946"/>
    <path id="Path_37" data-name="Path 37" d="M537.692,512.863q.006-8.017.012-16.037c.018-.128.036-.255.064-.441.238.126.149.331.149.47q.011,7.564,0,15.125c0,.3.125.661-.225.883" transform="translate(0 0.005)" fill="#140c27"/>
    <path id="Path_38" data-name="Path 38" d="M405.093,482.03c.9.079,1.1.764,1.244,1.471.072.343.09.7.133,1.045a1.828,1.828,0,0,1-1.377-2.516" transform="translate(0 0.005)" fill="#191221"/>
    <path id="Path_39" data-name="Path 39" d="M449.893,487.887c-.107-1.314-.434-1.437-2.134-.8-.009-.13-.018-.261-.026-.391.256-.665.69-1.08,1.446-.9.9.218.854.972.879,1.671l-.165.417" transform="translate(0 0.005)" fill="#f6c788"/>
    <path id="Path_40" data-name="Path 40" d="M525.668,510.148a61.942,61.942,0,0,1,0-9.869c.11,3.29.124,6.58,0,9.869" transform="translate(0 0.005)" fill="#faad1c"/>
    <path id="Path_41" data-name="Path 41" d="M480.478,468.444c.11.181-.007.217-.148.217q-2.761,0-5.522,0a.48.48,0,0,1-.489-.239l6.159.025" transform="translate(0 0.005)" fill="#fed08d"/>
    <path id="Path_42" data-name="Path 42" d="M449.841,479.111c.015.03.031.057.046.085a9.222,9.222,0,0,1-4.075-.11l4.029.025" transform="translate(0 0.005)" fill="#fcae1c"/>
    <path id="Path_43" data-name="Path 43" d="M514.994,504.742q0,1.828.005,3.658a8.909,8.909,0,0,1-.005-3.658" transform="translate(0 0.005)" fill="#0f0829"/>
    <path id="Path_44" data-name="Path 44" d="M408.621,494.07c.4.22.334.671.489,1.012-.555-.148-.4-.637-.489-1.012" transform="translate(0 0.005)" fill="#e1d3a4"/>
    <path id="Path_45" data-name="Path 45" d="M424.276,549.516a67.622,67.622,0,0,0,10.542,3.774,51.737,51.737,0,0,0,17.274,1.564c13.762-1.122,25.43-6.9,35.53-16.112.234-.214.467-.43.913-.841a15.027,15.027,0,0,1-1.508,3.953,33.126,33.126,0,0,1-18.36,16.2,47.566,47.566,0,0,1-22.472,2.678,36.064,36.064,0,0,1-19.423-8.657c-.915-.768-1.794-1.578-2.69-2.369-.046-.175-.011-.269.194-.194" transform="translate(0 0.005)" fill="#1d1229"/>
    <path id="Path_46" data-name="Path 46" d="M459.451,515.369a9.134,9.134,0,0,1-4.536-1.16,2.191,2.191,0,0,1-.786-3.378,8,8,0,0,1,5.227-3.525,3.953,3.953,0,0,1,4.473,3.21,4.009,4.009,0,0,1-3.041,4.682,13.032,13.032,0,0,1-1.337.171" transform="translate(0 0.005)" fill="#1d1229"/>
    <path id="Path_47" data-name="Path 47" d="M440.779,514.666a6.443,6.443,0,0,1-3.755-.812,4.026,4.026,0,0,1,4.25-6.837,8.809,8.809,0,0,1,3.459,3.292c1.1,1.858.519,3.3-1.528,3.962a7.713,7.713,0,0,1-2.426.4" transform="translate(0 0.005)" fill="#1d1229"/>
    <path id="Path_48" data-name="Path 48" d="M426.377,506.076a29.29,29.29,0,0,0,7.169-1.307,2.036,2.036,0,0,1,1.028-.226c-.3.189-.592.379-.89.567a4.813,4.813,0,0,0-2,6.358,15.2,15.2,0,0,0,3.546,4.895c.218.216.547.348.623.855a14.306,14.306,0,0,1-7.411-3.509,7.882,7.882,0,0,1-2.212-7.619c.041-.077.089-.085.144-.014" transform="translate(0 0.005)" fill="#2b1547"/>
    <path id="Path_49" data-name="Path 49" d="M453.48,547.513a20.854,20.854,0,0,1-2.234-4.84,74.513,74.513,0,0,1-3.516-18.466c-.128-1.673-.085-1.676,1.607-1.618,1.987.069,1.956.064,1.634,1.973a39.354,39.354,0,0,0,.146,12.616,54.739,54.739,0,0,0,2.191,9.1,1.9,1.9,0,0,1,.172,1.236" transform="translate(0 0.005)" fill="#1d1229"/>
    <path id="Path_50" data-name="Path 50" d="M426.377,506.076a.633.633,0,0,1-.144.014,24.73,24.73,0,0,1-9.257-1.507,1.933,1.933,0,0,1-.852-.419c2.849.476,5.7.93,8.544,1.447.572.1,1.254-.1,1.709.465" transform="translate(0 0.005)" fill="#c4a06e"/>
    <path id="Path_51" data-name="Path 51" d="M424.276,549.516l-.194.194a.693.693,0,0,1-.449-.478.729.729,0,0,1,.643.284" transform="translate(0 0.005)" fill="#745c53"/>
    <path id="Path_52" data-name="Path 52" d="M471.06,501.429a21.642,21.642,0,0,1-6.794-.791,10.649,10.649,0,0,1-6.809-6.541,34.517,34.517,0,0,1-2.124-8.409c-.329-2.234.81-4.077,3.114-5.289a22.733,22.733,0,0,1,8.469-2.182,60.929,60.929,0,0,1,9.376-.4,19.124,19.124,0,0,1,5.616.876,4.87,4.87,0,0,1,3.55,4.4,30.392,30.392,0,0,1-1.37,11.552c-1.253,3.756-4.084,5.653-7.827,6.388a23.981,23.981,0,0,1-5.2.394" transform="translate(0 0.005)" fill="#3a3a3c"/>
    <path id="Path_53" data-name="Path 53" d="M424.08,501.1a25.783,25.783,0,0,1-6.1-.767c-4.19-1.106-6.418-3.952-7.288-8.043a41.382,41.382,0,0,1-.756-8.271c-.033-3.643,1.565-5.6,5.138-6.253a36.331,36.331,0,0,1,8.39-.279,52.825,52.825,0,0,1,7.97.865,16.2,16.2,0,0,1,6.47,2.421,4.778,4.778,0,0,1,2.131,5.1,37.046,37.046,0,0,1-2.253,8.179,10.764,10.764,0,0,1-8.952,6.781,31.7,31.7,0,0,1-4.747.267" transform="translate(0 0.005)" fill="#3a3a3c"/>
    <path id="Path_54" data-name="Path 54" d="M1577.833,589.127H587.177v-3h987.656V470.481a49.46,49.46,0,0,0-49.459-49.46H541.724v-3h984.538a51.571,51.571,0,0,1,51.571,51.571Z" transform="translate(0 0.005)" fill="#2b1547"/>
  </g>
</svg>
