<svg id="Group_19" data-name="Group 19" xmlns="http://www.w3.org/2000/svg" xmlns:xlink="http://www.w3.org/1999/xlink" width="666.889" height="800.222" viewBox="0 0 666.889 800.222">
  <defs>
    <clipPath id="clip-path">
      <rect id="Rectangle_12" data-name="Rectangle 12" width="666.889" height="800.222" fill="none"/>
    </clipPath>
    <clipPath id="clip-path-3">
      <rect id="Rectangle_9" data-name="Rectangle 9" width="627.869" height="762.667" transform="translate(20.51 18.333)" fill="none"/>
    </clipPath>
  </defs>
  <g id="Group_18" data-name="Group 18" clip-path="url(#clip-path)">
    <g id="Group_17" data-name="Group 17">
      <g id="Group_16" data-name="Group 16" clip-path="url(#clip-path)">
        <g id="Group_15" data-name="Group 15" opacity="0.51">
          <g id="Group_14" data-name="Group 14">
            <g id="Group_13" data-name="Group 13" clip-path="url(#clip-path-3)">
              <path id="Path_55" data-name="Path 55" d="M619.523,781H49.367a28.856,28.856,0,0,1-28.856-28.856V47.189A28.856,28.856,0,0,1,49.367,18.333H619.523a28.856,28.856,0,0,1,28.856,28.856V752.144A28.856,28.856,0,0,1,619.523,781" fill="#3c3c3b"/>
            </g>
          </g>
        </g>
        <path id="Rectangle_10" data-name="Rectangle 10" d="M38.222,0H626.666a38.223,38.223,0,0,1,38.223,38.223V760a38.223,38.223,0,0,1-38.223,38.223H38.222A38.222,38.222,0,0,1,0,760V38.222A38.222,38.222,0,0,1,38.222,0Z" transform="translate(1 1)" fill="none" stroke="#f9b233" stroke-width="2"/>
      </g>
    </g>
  </g>
</svg>
